<?xml version="1.0" encoding="UTF-8"?>
<svg version="1.1" xmlns="http://www.w3.org/2000/svg" width="284" height="257">
<path d="M0 0 C93.72 0 187.44 0 284 0 C284 84.81 284 169.62 284 257 C190.28 257 96.56 257 0 257 C0 172.19 0 87.38 0 0 Z " fill="#FDFDFD" transform="translate(0,0)"/>
<path d="M0 0 C1.44632813 -0.01836914 1.44632813 -0.01836914 2.921875 -0.03710938 C12.24945889 -0.05586457 20.95031783 1.45373156 29.8125 4.3125 C31.47345703 4.84230469 31.47345703 4.84230469 33.16796875 5.3828125 C34.38419922 5.78113281 34.38419922 5.78113281 35.625 6.1875 C35.72296875 6.75597656 35.8209375 7.32445312 35.921875 7.91015625 C36.98741548 13.41238681 38.50955998 17.51433997 41.625 22.1875 C42.285 22.5175 42.945 22.8475 43.625 23.1875 C43.315625 23.8475 43.00625 24.5075 42.6875 25.1875 C40.04420799 32.65091274 40.31669608 38.06715864 43.625 45.1875 C46.11564506 49.00648909 48.60461287 51.06562902 52.625 53.1875 C52.295 53.80625 51.965 54.425 51.625 55.0625 C49.72941658 60.98619819 49.67988281 66.86027247 52.3125 72.5625 C54.82047067 76.96478895 57.78700712 79.57483571 62.625 81.1875 C64.85318441 81.25687062 67.08334524 81.27207084 69.3125 81.25 C70.49199219 81.24097656 71.67148438 81.23195313 72.88671875 81.22265625 C73.79035156 81.21105469 74.69398438 81.19945313 75.625 81.1875 C75.56699219 81.8165625 75.50898438 82.445625 75.44921875 83.09375 C75.14755833 88.81667915 75.61494528 92.73196375 79.0234375 97.42578125 C82.66707551 101.43378306 86.09975896 103.93097815 91.5859375 104.48828125 C94.286301 104.49869396 96.93461606 104.41005014 99.625 104.1875 C99.25525152 112.92121405 98.4188931 120.89312985 95.625 129.1875 C95.2125 130.4353125 94.8 131.683125 94.375 132.96875 C85.9378135 157.45105124 68.29686877 178.74084186 44.85327148 190.17260742 C41.80591651 191.58813041 38.72906786 192.89986123 35.625 194.1875 C34.6453125 194.59871094 33.665625 195.00992188 32.65625 195.43359375 C9.53935677 204.50099584 -18.18443393 202.40667089 -40.6875 192.875 C-51.7855654 187.88754008 -61.21375503 181.16943243 -70.375 173.1875 C-71.00019531 172.64738281 -71.62539062 172.10726562 -72.26953125 171.55078125 C-85.05551317 159.66311188 -94.48379196 142.12722566 -98.375 125.1875 C-98.65085938 124.10855469 -98.92671875 123.02960938 -99.2109375 121.91796875 C-104.05016397 101.07377765 -101.59665475 79.87534996 -93.375 60.1875 C-92.715 59.1975 -92.055 58.2075 -91.375 57.1875 C-89.27043724 56.81835651 -89.27043724 56.81835651 -86.61679077 56.82673645 C-85.11074028 56.82055046 -85.11074028 56.82055046 -83.57426453 56.8142395 C-82.46871719 56.82502533 -81.36316986 56.83581116 -80.22412109 56.84692383 C-79.06315414 56.84648575 -77.90218719 56.84604767 -76.70603943 56.84559631 C-72.85333672 56.847693 -69.00106456 56.87106605 -65.1484375 56.89453125 C-62.48327903 56.90012408 -59.81814469 56.90454315 -57.15298462 56.90739441 C-50.84539275 56.91672774 -44.53795641 56.94135879 -38.23043311 56.97144288 C-31.05037601 57.00494695 -23.87031158 57.02146282 -16.6901958 57.03652918 C-1.91837335 57.06790735 12.85328197 57.1229354 27.625 57.1875 C27.625 48.9375 27.625 40.6875 27.625 32.1875 C-5.705 32.1875 -39.035 32.1875 -73.375 32.1875 C-66.34789739 18.13329479 -46.27513486 9.34960084 -32.12890625 4.37890625 C-21.38393828 0.96869269 -11.25859082 0.00746591 0 0 Z " fill="#020202" transform="translate(135.375,24.8125)"/>
<path d="M0 0 C7.92 0 15.84 0 24 0 C24.33 7.59 24.66 15.18 25 23 C28.3 21.68 31.6 20.36 35 19 C49.66320353 15.14126223 64.92614547 16.05226846 78.421875 23.30078125 C90.25857748 31.10224425 98.28278397 41.25432344 102 55 C102.18304688 55.61230469 102.36609375 56.22460938 102.5546875 56.85546875 C105.23827998 69.77908517 101.75298453 82.82414637 94.6875 93.72265625 C86.82945393 104.32738046 75.16329209 111.87148806 62.18359375 114.58984375 C47.89234091 116.4310481 34.3360663 114.84845793 22 107 C11.13123646 98.43380414 3.38385116 89.56029458 0 76 C-0.16970592 73.37016125 -0.25458308 70.85346672 -0.22705078 68.22875977 C-0.22734283 67.48646622 -0.22763489 66.74417267 -0.22793579 65.97938538 C-0.22655342 63.54993596 -0.21104439 61.12080143 -0.1953125 58.69140625 C-0.19157847 56.99747383 -0.18873334 55.30353924 -0.18673706 53.60960388 C-0.17913128 49.16921946 -0.15950928 44.7289676 -0.1373291 40.28863525 C-0.1168046 35.75038445 -0.10772126 31.21211205 -0.09765625 26.67382812 C-0.07626028 17.78248472 -0.04110329 8.89127417 0 0 Z " fill="#FCFCFC" transform="translate(88,90)"/>
<path d="M0 0 C6.95338155 3.85488912 12.23521262 8.80254238 14.6875 16.5 C15.53711158 24.21565865 15.38066615 31.10022798 10.6875 37.5 C8.25 40.25 8.25 40.25 5.6875 42.5 C4.883125 43.221875 4.07875 43.94375 3.25 44.6875 C-3.77075854 49.65340238 -12.0583053 49.22622743 -20.3125 48.5 C-23.37652259 47.59936306 -25.72921615 46.35532606 -28.3125 44.5 C-29.6428125 43.63375 -29.6428125 43.63375 -31 42.75 C-36.56164127 37.33867336 -39.41458908 31.49067135 -39.5625 23.75 C-39.4521513 16.23525338 -37.20147788 10.66114244 -32.12890625 5.10546875 C-22.91569157 -3.03782423 -11.22800957 -5.21805483 0 0 Z " fill="#030303" transform="translate(151.3125,132.5)"/>
<path d="M0 0 C4.36045847 2.22136563 7.13277421 4.43567029 9 9 C9.72310712 15.40466307 8.78233196 18.7865154 5 24 C1.43925932 27.15379889 -2.08850903 27.63502642 -6.71484375 27.48828125 C-10.75347805 26.6253252 -13.41480422 24.12228632 -16 21 C-18.2225625 17.20900711 -18.4559588 14.40760175 -18 10 C-14.20148686 2.54907037 -8.39143052 -1.65818687 0 0 Z " fill="#060606" transform="translate(235,95)"/>
<path d="M0 0 C3.84844433 2.04219773 6.39644559 4.96114101 8 9 C8.33403245 13.78779839 7.66898085 17.15021351 4.6875 20.9375 C1.10559095 23.68640695 -0.81855606 24.82166884 -5.3125 25.5 C-10.22438844 24.83398123 -12.70893873 22.58855833 -16 19 C-17.85110583 15.29778834 -17.46454795 11.04093083 -17 7 C-13.10888666 0.32952 -7.35516581 -1.26197819 0 0 Z " fill="#A178B5" transform="translate(210,74)"/>
<path d="M0 0 C2.97672584 1.77280561 5.42804007 3.85608015 7 7 C7.55512815 11.63213493 7.6364242 14.98172127 5.125 19 C1.59151599 22.32563201 -1.04914031 22.33433305 -5.7421875 22.2890625 C-9.07940122 21.86180676 -10.73210517 20.40534301 -13 18 C-15.53604144 14.19593784 -15.60198813 12.51491096 -15 8 C-10.97967809 1.75986844 -7.60359787 -0.76035979 0 0 Z " fill="#06B0EF" transform="translate(237,58)"/>
<path d="M0 0 C2.75329021 1.79562405 4.52627461 3.05254922 6 6 C6.42068924 9.05901174 6.49028455 11.94758326 6 15 C3.5625 18 3.5625 18 1 20 C0.67 20.33 0.34 20.66 0 21 C-3.25564772 21.38301738 -5.86168034 21.67642942 -8.76171875 19.953125 C-12.32607746 17.01878611 -13.84666571 15.32889717 -14.375 10.75 C-13.88072704 5.80727042 -12.46171699 4.46171699 -9 1 C-5.89951072 -0.55024464 -3.42105782 -0.28992015 0 0 Z " fill="#A9CF40" transform="translate(222,28)"/>
<path d="M0 0 C3.87832274 0.92233016 5.42507928 2.38197014 8.00390625 5.4765625 C8.74505207 8.30431885 8.69127646 10.64116037 8.00390625 13.4765625 C6.21026714 16.2865971 4.9850969 17.98596718 2.00390625 19.4765625 C-1.00716552 19.82209533 -3.08922152 20.04904403 -5.99609375 19.4765625 C-9.09068611 16.89773553 -10.55032609 15.35097899 -11.47265625 11.47265625 C-11.7450322 7.69523183 -11.08163194 5.60486978 -8.99609375 2.4765625 C-5.86778647 0.39102431 -3.77742442 -0.27237595 0 0 Z " fill="#FFCB0A" transform="translate(195.99609375,44.5234375)"/>
<path d="M0 0 C4.15526322 0.65609419 5.84398463 1.34970911 8.5625 4.5625 C9.1875 8 9.1875 8 8.5625 11.5625 C5.94681879 15.28786415 4.5021067 16.39765672 0 17.1875 C-3.4375 16.5625 -3.4375 16.5625 -5.875 14.4375 C-7.71792686 11.04651457 -8.07108675 9.36402049 -7.4375 5.5625 C-5.34838357 1.71852577 -4.36166466 0.71372694 0 0 Z " fill="#ED2129" transform="translate(186.4375,17.4375)"/>
</svg>
